<svg width="24" height="24" viewBox="0 0 24 24" fill="none" xmlns="http://www.w3.org/2000/svg">
<g clip-path="url(#clip0_7_464)">
<path d="M10.7193 20.8006H19.4175L17.2289 22.9891C17.1734 23.044 17.1292 23.1093 17.099 23.1813C17.0688 23.2533 17.0531 23.3305 17.0529 23.4086C17.0526 23.4867 17.0678 23.564 17.0976 23.6362C17.1273 23.7084 17.1711 23.7739 17.2263 23.8291C17.2815 23.8843 17.3471 23.9281 17.4192 23.9578C17.4914 23.9876 17.5688 24.0028 17.6468 24.0026C17.7249 24.0023 17.8021 23.9866 17.8741 23.9564C17.9461 23.9262 18.0114 23.8821 18.0663 23.8265L21.149 20.7438C21.2964 20.5959 21.3793 20.3956 21.3793 20.1868C21.3793 19.978 21.2964 19.7777 21.149 19.6298L18.0663 16.5471C18.0114 16.4916 17.9461 16.4474 17.8741 16.4172C17.8021 16.387 17.7249 16.3713 17.6468 16.3711C17.5688 16.3708 17.4914 16.386 17.4192 16.4158C17.3471 16.4456 17.2815 16.4893 17.2263 16.5445C17.1711 16.5997 17.1273 16.6653 17.0976 16.7375C17.0678 16.8096 17.0526 16.887 17.0529 16.965C17.0531 17.0431 17.0688 17.1204 17.099 17.1923C17.1292 17.2643 17.1734 17.3296 17.2289 17.3845L19.4391 19.5947V19.6153H10.7193C6.90725 19.6153 3.80591 16.514 3.80591 12.7019L3.80591 0.592552C3.80591 0.435387 3.74348 0.284658 3.63234 0.173525C3.52121 0.0623932 3.37048 -4.00543e-05 3.21332 -4.00543e-05C3.05615 -4.00543e-05 2.90542 0.0623932 2.79429 0.173525C2.68316 0.284658 2.62072 0.435387 2.62072 0.592552L2.62072 12.7019C2.62072 17.1675 6.25372 20.8006 10.7193 20.8006Z" fill="#B1B1B1"/>
</g>
<defs>
<clipPath id="clip0_7_464">
<rect width="24" height="24" fill="white" transform="matrix(-1 0 0 -1 24 24)"/>
</clipPath>
</defs>
</svg>
